<?xml version="1.0" standalone="no"?>
<!DOCTYPE svg PUBLIC "-//W3C//DTD SVG 20010904//EN"
 "http://www.w3.org/TR/2001/REC-SVG-20010904/DTD/svg10.dtd">
<svg version="1.0" xmlns="http://www.w3.org/2000/svg"
 width="1244.000000pt" height="130.000000pt" viewBox="0 0 1244.000000 130.000000"
 preserveAspectRatio="xMidYMid meet">

<g transform="translate(0.000000,130.000000) scale(0.100000,-0.100000)"
fill="#000000" stroke="none">
<path d="M7874 1237 c-148 -116 -174 -140 -162 -154 6 -8 18 -11 27 -7 9 3 58
21 110 40 104 37 131 56 131 91 0 68 -43 80 -106 30z"/>
<path d="M7094 1032 c-23 -18 -37 -61 -26 -77 4 -6 19 -18 34 -28 52 -33 42
-98 -24 -160 -24 -23 -28 -30 -18 -42 20 -25 39 -18 97 38 64 59 83 97 83 161
0 57 -14 88 -50 109 -36 22 -69 21 -96 -1z"/>
<path d="M1823 1022 c-7 -4 -22 -30 -33 -57 -12 -28 -27 -63 -35 -80 -7 -16
-25 -61 -39 -100 -15 -38 -33 -83 -41 -100 -7 -16 -38 -95 -69 -175 -120 -307
-150 -361 -213 -376 -17 -5 -23 -12 -21 -28 3 -20 9 -21 146 -24 l142 -3 0 26
c0 21 -5 25 -28 25 -34 0 -72 25 -72 48 0 9 18 67 38 127 l38 110 162 3 c148
2 163 1 168 -15 10 -29 45 -125 61 -163 7 -19 15 -48 16 -65 2 -27 -2 -31 -35
-39 -30 -8 -38 -14 -38 -33 l0 -23 160 0 c134 0 162 2 166 15 9 21 -11 42 -47
49 -26 5 -35 16 -65 83 -48 103 -46 100 -99 238 -26 66 -53 134 -61 152 -8 17
-14 34 -14 38 0 4 -6 21 -14 38 -8 18 -35 86 -61 152 -73 193 -77 199 -112
177z m12 -259 c15 -43 42 -116 60 -163 18 -47 36 -95 39 -107 l7 -23 -140 0
c-78 0 -141 2 -141 4 0 3 15 42 33 88 19 46 40 101 47 123 7 22 16 45 20 50 4
6 13 31 20 58 7 26 16 47 20 47 4 0 20 -35 35 -77z"/>
<path d="M3155 1011 c-63 -17 -105 -41 -144 -81 -43 -45 -61 -90 -61 -155 0
-119 60 -189 234 -276 68 -33 138 -75 155 -93 76 -79 57 -224 -35 -262 -43
-18 -135 -18 -178 0 -18 8 -43 24 -56 37 -25 27 -60 101 -60 129 0 24 -15 33
-40 25 -18 -6 -20 -15 -19 -88 2 -137 3 -138 84 -159 51 -13 98 -18 176 -16
97 3 110 6 172 37 92 47 137 118 137 215 0 57 -18 110 -52 157 -20 27 -128
109 -143 109 -4 0 -44 18 -90 40 -130 63 -181 138 -155 230 23 80 83 114 173
98 81 -15 106 -33 133 -94 13 -30 24 -61 24 -69 0 -9 10 -15 25 -15 l25 0 0
103 0 102 -42 14 c-51 16 -221 24 -263 12z"/>
<path d="M4080 1014 c-244 -48 -418 -275 -396 -515 18 -199 133 -345 321 -406
138 -45 326 -26 439 45 181 113 268 345 205 548 -44 144 -143 247 -291 304
-53 21 -221 35 -278 24z m134 -60 c184 -47 300 -220 300 -449 0 -174 -63 -299
-177 -354 -42 -21 -59 -23 -140 -19 -111 5 -152 22 -223 93 -52 52 -71 82
-107 175 -30 77 -32 270 -3 345 43 111 111 181 201 208 66 20 76 20 149 1z"/>
<path d="M9590 1014 c-143 -29 -283 -133 -347 -259 -91 -179 -61 -399 74 -540
95 -101 207 -145 364 -145 152 0 253 40 354 139 210 206 182 566 -57 724 -85
55 -160 78 -268 82 -52 2 -106 1 -120 -1z m128 -59 c132 -31 216 -111 275
-262 19 -50 22 -77 22 -193 0 -132 -1 -136 -33 -202 -39 -79 -105 -143 -166
-159 -23 -6 -80 -9 -127 -7 -67 3 -94 9 -125 28 -61 36 -113 90 -149 155 -135
243 -54 576 157 637 69 20 72 20 146 3z"/>
<path d="M125 1000 c-3 -6 -3 -19 0 -30 5 -15 15 -20 39 -20 64 0 66 -12 55
-370 -6 -204 -13 -302 -24 -345 -18 -66 -38 -95 -67 -95 -34 0 -57 -18 -51
-40 5 -20 12 -20 162 -18 152 3 156 4 159 25 3 20 -2 23 -48 29 -34 4 -54 13
-60 25 -11 20 -13 261 -3 503 5 145 8 163 19 139 7 -15 36 -82 65 -148 29 -66
67 -154 86 -195 19 -41 48 -106 66 -145 87 -193 138 -265 153 -219 3 11 12 33
19 49 7 17 32 75 55 130 23 55 48 114 55 130 7 17 31 73 53 125 106 250 135
316 143 324 5 6 9 -20 9 -65 0 -40 5 -186 10 -324 5 -137 6 -266 2 -285 -7
-33 -10 -35 -57 -40 -45 -5 -50 -7 -50 -30 l0 -25 183 -3 182 -2 0 24 c0 24
-21 36 -66 36 -12 0 -27 7 -34 15 -14 17 -33 356 -34 615 l-1 175 45 5 c40 4
45 8 48 33 l3 27 -121 0 -121 0 -15 -37 c-8 -21 -22 -52 -30 -70 -8 -17 -14
-34 -14 -38 0 -4 -6 -21 -14 -38 -8 -18 -29 -66 -46 -107 -17 -41 -35 -84 -40
-95 -5 -11 -30 -69 -55 -130 -26 -60 -52 -123 -60 -140 -7 -16 -16 -40 -20
-52 -6 -23 -25 -32 -25 -12 0 5 -18 48 -40 95 -22 47 -40 87 -40 89 0 2 -21
48 -46 102 -73 157 -80 172 -133 292 -28 63 -51 121 -51 128 0 10 -27 13 -119
13 -70 0 -122 -4 -126 -10z"/>
<path d="M2403 993 c-11 -28 6 -43 46 -43 30 0 43 -5 51 -19 13 -26 14 -745 0
-770 -5 -11 -26 -21 -51 -25 -54 -9 -58 -12 -52 -36 5 -19 14 -20 179 -20 105
0 175 4 179 10 3 6 3 19 0 30 -5 15 -15 20 -44 20 -20 0 -42 5 -49 12 -18 18
-17 774 1 785 6 4 30 10 52 13 35 4 40 8 40 30 l0 25 -174 0 c-132 1 -174 -2
-178 -12z"/>
<path d="M4804 995 c-11 -28 4 -45 41 -45 46 0 72 -27 80 -82 4 -24 5 -180 3
-348 -3 -261 -5 -310 -20 -342 -12 -27 -23 -38 -38 -38 -35 0 -59 -18 -53 -40
5 -19 13 -20 149 -20 l144 0 0 24 c0 24 -21 36 -66 36 -44 0 -49 34 -52 364
-2 177 1 307 6 305 13 -6 162 -180 332 -390 271 -335 285 -350 306 -347 l22 3
6 420 c7 461 6 451 70 457 26 2 31 7 31 28 l0 25 -147 1 -148 1 0 -28 c0 -26
3 -29 35 -29 24 0 44 -8 59 -23 23 -23 24 -33 31 -208 3 -101 5 -235 3 -298
l-3 -114 -80 98 c-44 53 -92 111 -106 129 -65 77 -280 338 -333 404 l-58 72
-104 0 c-84 0 -106 -3 -110 -15z"/>
<path d="M6333 993 c-11 -28 6 -43 47 -43 34 0 42 -4 50 -26 6 -15 10 -172 10
-377 0 -393 -1 -400 -60 -405 -44 -4 -59 -17 -53 -42 5 -19 15 -20 263 -20
141 0 285 -3 319 -6 58 -7 61 -6 61 16 0 12 6 48 14 79 8 31 17 73 20 94 7 35
6 37 -21 37 -24 0 -32 -8 -57 -55 -16 -31 -42 -67 -58 -80 -28 -24 -36 -25
-161 -25 l-132 0 0 394 c0 217 4 398 8 402 4 5 29 11 55 14 42 4 47 8 47 30
l0 24 -174 1 c-133 1 -174 -2 -178 -12z"/>
<path d="M7430 978 c0 -25 4 -28 34 -28 71 0 66 29 66 -399 0 -288 -3 -390
-12 -399 -7 -7 -29 -12 -49 -12 -29 0 -39 -5 -44 -21 -4 -12 -3 -25 2 -30 8
-8 651 -14 659 -6 3 2 10 52 17 110 11 90 11 107 -1 112 -26 10 -32 5 -61 -53
-16 -31 -41 -70 -57 -85 l-27 -28 -146 3 -146 3 -3 188 -2 187 114 0 c122 0
129 -3 141 -53 6 -23 12 -28 34 -25 14 2 25 6 24 11 -2 4 -3 57 -3 117 0 103
-1 110 -20 110 -13 0 -25 -12 -35 -37 -9 -21 -21 -41 -28 -45 -7 -4 -60 -8
-119 -8 l-108 0 0 164 c0 90 3 171 6 179 5 13 27 14 142 10 159 -6 159 -6 195
-103 18 -49 29 -65 43 -65 17 0 19 10 22 104 1 57 -1 108 -5 112 -5 5 -149 9
-321 11 l-312 3 0 -27z"/>
<path d="M8274 1001 c-2 -2 -4 -53 -4 -113 l0 -109 26 3 c22 2 29 11 40 46 6
24 20 58 29 77 l16 35 115 0 115 0 -3 -385 c-2 -297 -6 -387 -16 -397 -7 -7
-30 -18 -50 -23 -27 -8 -37 -16 -37 -30 0 -19 9 -20 173 -23 l173 -2 -3 27
c-3 25 -8 29 -48 33 -40 4 -46 8 -51 35 -8 38 -11 688 -3 735 l6 35 109 -3
109 -3 19 -37 c10 -20 24 -56 30 -80 9 -31 17 -42 31 -42 21 0 20 -10 20 216
0 7 -789 12 -796 5z"/>
<path d="M10325 1001 c-3 -2 -5 -15 -5 -28 0 -20 5 -23 43 -23 77 0 72 25 72
-398 0 -412 0 -412 -55 -412 -44 0 -60 -10 -60 -36 l0 -24 178 2 177 3 0 25
c0 22 -5 25 -42 28 -23 2 -46 9 -52 16 -12 15 -17 729 -5 761 10 27 23 35 60
35 38 0 42 4 37 33 -5 23 -6 23 -174 23 -93 0 -172 -2 -174 -5z"/>
<path d="M10873 994 c-10 -26 6 -44 39 -44 66 0 63 18 66 -387 2 -416 3 -415
-63 -423 -35 -4 -40 -9 -43 -33 l-3 -27 244 0 c134 0 277 -3 318 -6 l74 -6 21
108 c12 60 20 112 17 117 -2 4 -14 7 -26 7 -16 0 -29 -14 -51 -55 -16 -31 -42
-67 -58 -80 -28 -24 -36 -25 -164 -25 l-135 0 3 394 c2 217 7 398 11 402 4 5
29 11 55 14 42 4 47 8 47 30 l0 25 -173 1 c-139 1 -175 -1 -179 -12z"/>
<path d="M11700 978 c0 -25 3 -27 47 -30 44 -3 47 -5 55 -36 5 -18 8 -192 6
-386 -3 -389 -2 -383 -65 -388 -39 -3 -65 -30 -48 -47 10 -10 652 -17 661 -8
2 2 10 51 18 108 12 93 12 105 -2 117 -19 15 -24 11 -57 -55 -14 -29 -39 -66
-56 -83 l-31 -31 -147 3 -146 3 -3 188 -2 187 113 0 c98 0 116 -3 130 -18 10
-10 17 -28 17 -40 0 -17 6 -22 24 -22 25 0 25 1 28 111 2 61 0 116 -3 121 -10
15 -49 -1 -49 -20 0 -10 -7 -28 -16 -40 -14 -21 -23 -22 -130 -22 l-114 0 0
98 c0 53 3 134 7 179 l6 83 121 -6 c67 -3 130 -7 142 -9 20 -4 39 -35 78 -127
16 -39 42 -50 53 -22 3 8 2 60 -3 114 l-9 99 -313 3 -312 3 0 -27z"/>
</g>
</svg>
